# xmcd CD database file
#
# Track frame offsets:
#        150
#        12288
#        26732
#        41689
#        55888
#        69167
#        80626
#        98000
#        111671
#        126118
#        140706
#        154008
#        167542
#        183353
#
# Disc length: 2613 seconds
#
# Revision: 0
# Processed by: cddbd v1.5.2PL0 Copyright (c) Steve Scherf et al.
# Submitted via: CUERipper 2.1.5
#
DISCID=ba0a330e
DTITLE=Banda Passarela - Não Tira Meu Nome da Boca
DYEAR=2013
DGENRE=
TTITLE0=Aceito Você Assim
TTITLE1=Azulzinho
TTITLE2=Não Tira Meu Nome da Boca
TTITLE3=Refrão do Wando
TTITLE4=Quarto 12
TTITLE5=Sabor do Batom
TTITLE6=O Bebum
TTITLE7=Se Eu Não Sentisse Tanto Amor
TTITLE8=Cachaça, Cerveja e Vinho
TTITLE9=Mais Um Aniversário
TTITLE10=Beber Deitado
TTITLE11=Na Boca do Povo
TTITLE12=A Minha Amada Diz Que Sou
TTITLE13=Alô Dj
EXTD=
EXTT0=
EXTT1=
EXTT2=
EXTT3=
EXTT4=
EXTT5=
EXTT6=
EXTT7=
EXTT8=
EXTT9=
EXTT10=
EXTT11=
EXTT12=
EXTT13=
PLAYORDER=
